<svg xmlns="http://www.w3.org/2000/svg" version="1.1" xmlns:xlink="http://www.w3.org/1999/xlink" xmlns:svgjs="http://svgjs.dev/svgjs" width="1000" height="1000" viewBox="0 0 1000 1000"><rect width="1000" height="1000" fill="#ffffff"></rect><g transform="matrix(0.7,0,0,0.7,149.57575757575756,442.10729572707805)"><svg viewBox="0 0 396 66" data-background-color="#ffffff" preserveAspectRatio="xMidYMid meet" height="166" width="1000" xmlns="http://www.w3.org/2000/svg" xmlns:xlink="http://www.w3.org/1999/xlink"><defs></defs><g id="tight-bounds" transform="matrix(1,0,0,1,0.2400000000000091,-0.1177411186501729)"><svg viewBox="0 0 395.52 66.23548223730033" height="66.23548223730033" width="395.52"><g><svg viewBox="0 0 473.75755140897695 79.33747947293737" height="66.23548223730033" width="395.52"><g transform="matrix(1,0,0,1,0,10.964875961889323)"><svg viewBox="0 0 395.52 57.40772754915873" height="57.40772754915873" width="395.52"><g><svg viewBox="0 0 395.52 57.40772754915873" height="57.40772754915873" width="395.52"><g><svg viewBox="0 0 395.52 57.40772754915873" height="57.40772754915873" width="395.52"><g transform="matrix(1,0,0,1,0,0)"><svg width="395.52" viewBox="0 -35.8 246.64 35.8" height="57.40772754915873" data-palette-color="#050f76"><path d="M0-2.15L4.85-2.15 4.85-34.95 10.75-34.95 10.75-2.15 15.6-2.15 15.6 0 0 0 0-2.15ZM15.6-2.15L20.45-2.15 20.45-34.95 26.35-34.95 46.65-8.85 46.65-34.95 52.55-34.95 52.55-2.15 57.4-2.15 57.4 0 46.15 0 26.35-25.5 26.35 0 15.6 0 15.6-2.15ZM68.15-2.15L87.6-2.15 87.6 0 57.4 0 57.4-2.15 62.25-2.15 62.25-34.95 85.55-34.95 85.5-29.45 68.15-29.45 68.15-19.85 83.65-19.85 83.65-14.4 68.15-14.4 68.15-2.15ZM118.14-2.15L129.59-2.15 129.59 0 87.59 0 87.59-2.15 99.04-2.15Q94.94-4.5 92.57-8.6 90.19-12.7 90.19-17.75L90.19-17.75Q90.19-25.45 95.49-30.63 100.79-35.8 108.59-35.8 116.39-35.8 121.69-30.63 126.99-25.45 126.99-17.75L126.99-17.75Q126.99-12.75 124.62-8.6 122.24-4.45 118.14-2.15L118.14-2.15ZM117.37-26.7Q113.79-30.4 108.59-30.4 103.39-30.4 99.82-26.7 96.24-23 96.24-17.73 96.24-12.45 99.82-8.75 103.39-5.05 108.59-5.05 113.79-5.05 117.37-8.75 120.94-12.45 120.94-17.73 120.94-23 117.37-26.7ZM162.39-2.15L167.24-2.15 167.24 0 156.44 0 148.09-11.75 140.34-11.75 140.34 0 129.59 0 129.59-2.15 134.44-2.15 134.44-34.95 147.44-34.95Q155.44-34.95 158.89-32.25 162.34-29.55 162.34-23.6L162.34-23.6Q162.34-14.95 154.79-12.7L154.79-12.7 162.39-2.15ZM147.69-17.1Q152.69-17.1 154.49-18.65 156.29-20.2 156.29-23.63 156.29-27.05 154.44-28.33 152.59-29.6 147.84-29.6L147.84-29.6 140.34-29.6 140.34-17.1 147.69-17.1ZM210.29-2.15L215.14-2.15 215.14 0 204.39 0 204.39-27.3 192.19-3.05 188.89-3.05 176.74-27.3 176.74 0 165.99 0 165.99-2.15 170.84-2.15 170.84-34.95 180.04-34.95 190.59-13 201.14-34.95 210.29-34.95 210.29-2.15ZM240.39-2.15L246.64-2.15 246.64 0 215.14 0 215.14-2.15 221.54-2.15Q219.14-3.4 217.14-5.25L217.14-5.25 220.84-9.7Q226.14-5.1 231.84-5.1L231.84-5.1Q234.69-5.1 236.36-6.33 238.04-7.55 238.04-9.58 238.04-11.6 236.46-12.73 234.89-13.85 231.04-14.78 227.19-15.7 225.19-16.48 223.19-17.25 221.64-18.5L221.64-18.5Q218.54-20.85 218.54-25.7 218.54-30.55 222.06-33.18 225.59-35.8 230.79-35.8L230.79-35.8Q234.14-35.8 237.44-34.7 240.74-33.6 243.14-31.6L243.14-31.6 239.99-27.15Q238.44-28.55 235.79-29.45 233.14-30.35 230.56-30.35 227.99-30.35 226.34-29.3 224.69-28.25 224.69-26.13 224.69-24 226.34-22.88 227.99-21.75 233.36-20.45 238.74-19.15 241.46-16.8 244.19-14.45 244.19-10.2L244.19-10.2Q244.19-5.05 240.39-2.15L240.39-2.15Z" opacity="1" transform="matrix(1,0,0,1,0,0)" fill="#000000" class="undefined-text-0" data-fill-palette-color="primary" id="text-0"></path></svg></g></svg></g></svg></g></svg></g><g transform="matrix(1,0,0,1,409.07258668889517,0)"><svg viewBox="0 0 64.68496472008175 79.33747947293737" height="79.33747947293737" width="64.68496472008175"><g><svg xmlns="http://www.w3.org/2000/svg" xmlns:xlink="http://www.w3.org/1999/xlink" version="1.1" x="0" y="0" viewBox="5.2 1 37.50444804764348 46" enable-background="new 0 0 48 48" xml:space="preserve" height="79.33747947293737" width="64.68496472008175" class="icon-icon-0" data-fill-palette-color="accent" id="icon-0"><g fill="#050f76" data-fill-palette-color="accent"><g fill="#050f76" data-fill-palette-color="accent"><path fill="#000000" d="M39.3 1H8.7C6.8 1 5.2 2.5 5.2 4.4v39.2c0 1.9 1.5 3.4 3.4 3.4h30.7c1.9 0 3.4-1.5 3.4-3.4V4.4C42.8 2.5 41.2 1 39.3 1zM24 45c-1.2 0-2.2-1-2.2-2.2s1-2.2 2.2-2.2 2.2 1 2.2 2.2S25.2 45 24 45zM39.3 39.2H8.7V4.4h30.6V39.2z" data-fill-palette-color="accent"></path></g><g fill="#050f76" data-fill-palette-color="accent"><g fill="#050f76" data-fill-palette-color="accent"><g fill="#050f76" data-fill-palette-color="accent"><path fill="#000000" d="M33.9 10.8H14.1c-0.6 0-1-0.4-1-1s0.4-1 1-1h19.7c0.6 0 1 0.4 1 1S34.4 10.8 33.9 10.8z" data-fill-palette-color="accent"></path></g></g><g fill="#050f76" data-fill-palette-color="accent"><g fill="#050f76" data-fill-palette-color="accent"><path fill="#000000" d="M33.9 17H14.1c-0.6 0-1-0.4-1-1 0-0.6 0.4-1 1-1h19.7c0.6 0 1 0.4 1 1C34.9 16.5 34.4 17 33.9 17z" data-fill-palette-color="accent"></path></g></g><g fill="#050f76" data-fill-palette-color="accent"><g fill="#050f76" data-fill-palette-color="accent"><path fill="#000000" d="M33.9 23.1H14.1c-0.6 0-1-0.4-1-1s0.4-1 1-1h19.7c0.6 0 1 0.4 1 1S34.4 23.1 33.9 23.1z" data-fill-palette-color="accent"></path></g></g><g fill="#050f76" data-fill-palette-color="accent"><g fill="#050f76" data-fill-palette-color="accent"><path fill="#000000" d="M33.9 29.2H14.1c-0.6 0-1-0.4-1-1s0.4-1 1-1h19.7c0.6 0 1 0.4 1 1S34.4 29.2 33.9 29.2z" data-fill-palette-color="accent"></path></g></g><g fill="#050f76" data-fill-palette-color="accent"><g fill="#050f76" data-fill-palette-color="accent"><path fill="#000000" d="M33.9 35.3H14.1c-0.6 0-1-0.4-1-1s0.4-1 1-1h19.7c0.6 0 1 0.4 1 1S34.4 35.3 33.9 35.3z" data-fill-palette-color="accent"></path></g></g></g></g></svg><g></g></g></svg></g></svg></g></svg><rect width="395.52" height="66.23548223730033" fill="none" stroke="none" visibility="hidden"></rect></g></svg></g></svg>