<?xml version="1.0"?>
<svg version="1.1" viewBox="0 0 2048 430" width="1194" height="251" xmlns="http://www.w3.org/2000/svg">
<path transform="translate(1253,9)" d="m0 0 47 7 420 66 7 3 9 11 11 13 9 11 9 10 9 11 13 15 24 28h17l135-7 6 4 12 12 8 7 16 15 7 7 8 7 7 7 8 7 2 5-2 3-9-1-36-10-9-3-1-5 5-3 30 8-16-16-4-3-12-3-10 8-11 10-11 9-10 9-8 7-14 12-15 13-9 7-11 4-75 23-56 17-58 18-153 47-43 13h-6l-2-4 4-5 17-12 18-13 19-13 19-14 16-11 18-13 17-12 18-13 16-11 18-13 6-4-2-5-13-16-13-17-14-18-13-17-19-10-28-14-23-11-64-32-23-11-48-24-23-11-66-33-23-11-54-27-1-5zm58 18 2 2 35 11 4-1-14-6 3-2-25-4zm31 5v1h5v-1zm6 1 4 1zm7 1 4 1zm-43 3m2 1 4 3 48 24 23 11 48 24 23 11 54 27 23 11 36 18 23 11 10 5 2-1-10-13-11-14-39-19-34-17-23-11-42-21-23-11-17-8-61-20-30-10zm68 0m6 1m-36 1m253 125 4 6 13 16 13 17 20 26 14 18 13 17 5 2 20 1-2-4-14-19-12-15-10-13-13-17-11-14-5-5-33-16zm324 22-91 5-12 1v1h31l82-4 7-1 1-2zm43 21-10 9-11 9-11 10-11 9-11 10-11 9-8 7-10 4 3 5 4-1 10-9 8-7 14-12 10-9 11-9 11-10 8-7 7-6v-2zm-284 67-5 5-13 9-18 13-20 14-18 13-19 13-16 12-16 11-14 10-3 3 5-1 21-10 22-12 12-9 19-13 16-12 16-11 18-13 19-13 10-7v-2zm190 3-7 2v1h11l-1-3zm-29 9-50 15-153 47-51 15-18 8-16 8-11 6 3 1 27-8 28-9 66-20 55-17 121-37 18-6v-1z" fill="#52C4B1"></path>
<path transform="translate(903,148)" d="m0 0h33v106l8-7 20-20 2-1h72v-78h33v193h-33l-1-84h-100l-1 84h-33l-1-3v-189z" fill="#52C4B1"></path>
<path transform="translate(250,214)" d="m0 0 5 3 25 25 2 10 3 17 5 12 6 10 6 7 10 7 11 5 16 3h11l15-3 14-7 9-9 6-12 3-14h-53l-1-1v-28l9-1h73l5 1v20l-3 21-6 18-7 13-8 10-10 9-12 7-15 5-10 2h-32l-17-4-17-7-13-9-13-13-9-14-6-14-4-16-2-17v-12l2-18z" fill="#52C4B1"></path>
<path transform="translate(583,144)" d="m0 0 3 3 11 22 11 23 42 86 19 39 10 21v3h-33l-8-16-13-27h-82l-8 16-12 25-2 2h-33l1-5 26-53 8-15 2-1h78l7-1-18-37-13-28-11-24 1-5 11-22z" fill="#51C4B0"></path>
<path transform="translate(1233,144)" d="m0 0 3 3 11 23 13 26 11 23 22 45 11 22 11 23 8 17 6 12v3h-33l-9-17-12-26h-82l-3 5-18 37-1 1h-33l1-5 23-47 9-19 3-3h86l-18-38-16-34-8-18 1-5 13-27z" fill="#51C4B0"></path>
<path transform="translate(104,144)" d="m0 0h2l12 25 12 24 11 23 11 22 11 23 26 53 12 25v2h-33l-5-8-13-27-4-8h-82l-8 16-13 27h-34l2-6 20-41 12-25 3-2h82l3-1-16-34-17-36-8-18 1-7z" fill="#51C4B0"></path>
<path transform="translate(1523,61)" d="m0 0 12 1 61 9 100 16 20 4-1 6-19 48-8 21-3 1-68-31-37-17-18-8-5-4-13-17-13-16-8-11z" fill="#FEFEFE"></path>
<path transform="translate(1723,96)" d="m0 0 4 2 9 10 9 11 9 10 9 11 13 15 33 39 9 10 9 11 13 15 7 8-1 3-54-25-35-16-39-18-22-10-2-3 11-29 12-30z" fill="#FEFEFE"></path>
<path transform="translate(1702,184)" d="m0 0 6 1 72 33 70 32 13 7 10 11 7 8v2l-9 3-22-1-75-6-10-1-12-16-11-16-28-40-11-16z" fill="#FEFEFE"></path>
<path transform="translate(1442,202)" d="m0 0h30v45h45v30h-45v45h-30l-1-2v-42l-44-1-1-1v-28l1-1h44v-17z" fill="#51C4B0"></path>
<path transform="translate(1573,124)" d="m0 0 9 3 28 13 33 15 41 19 5 4 11 16 13 18 11 16 14 20 12 17 3 4v3l-31-2-12-1-3-1-14-19-11-14-14-18-13-17-11-14-1-3-5-2-31-15-4-2-9-11-14-17-7-10z" fill="#FEFEFE"></path>
<path transform="translate(1762,280)" d="m0 0 30 2 50 4 3 1v2l-206 63-41 12-2-1 10-6 38-19 23-11 56-28 23-11z" fill="#FEFEFE"></path>
<path transform="translate(331,144)" d="m0 0h25l17 3 15 5 14 8 13 11 2 4-12 11-11 10-4-1-10-9-14-7-13-3h-19l-15 4-11 6-11 10-5-2-20-20 2-4 9-8 15-9 13-5z" fill="#51C4B0"></path>
<path transform="translate(750,206)" d="m0 0 4 2 10 9 8 7 10 9 2 2v106h-34z" fill="#50C4B0"></path>
<path transform="translate(1341,31)" d="m0 0 8 1 3 1h3v2l7-1 19 3 3 1 21 3 105 17 11 13 10 13 13 16 1 3-2 1-49-16-50-16-62-20-28-10v-2l-9-3-8-4z" fill="#FEFEFE"></path>
<path transform="translate(699,148)" d="m0 0h136v29l-1 1h-51l-12-11-8-7-11-9-2-1v28h-51z" fill="#51C4B0"></path>
<path transform="translate(1939,189)" d="m0 0h6l-5 5-15 11-18 13-17 12-18 13-6 4-4-2-11-12-9-11-10-11-9-11-2-4v-2l5-1h31z" fill="#FEFEFE"></path>
<path transform="translate(1962,188)" d="m0 0 6 3 7 7 6 5v3l-5 2-1 2v-2l-5 3-28 24-15 13-14 12-10 9-6 4-9 2-8-8-9-11v-4l19-14 14-10 36-26 19-13z" fill="#FEFEFE"></path>
<path transform="translate(1416,71)" d="m0 0 8 1 35 12 50 16 37 12 10 4 10 12 11 14 5 5 4 6-1 2-35-17-36-18-23-11-42-21-23-11-10-5z" fill="#FEFEFE"></path>
<path transform="translate(1704,276)" d="m0 0h13l24 2 4 1v2l-72 36-14 9-2 2-17 6-34 16-7 3-3-1 16-11 18-13 68-48z" fill="#FEFEFE"></path>
<path transform="translate(1986,210)" d="m0 0 5 2 3 5-7-1-3-1 1-4z" fill="#FEFEFE"></path>
</svg>